<?xml version="1.0" encoding="UTF-8" standalone="no"?>
<!-- Created with Inkscape (http://www.inkscape.org/) -->

<svg
   width="132.29167mm"
   height="132.29166mm"
   viewBox="0 0 132.29167 132.29166"
   version="1.1"
   id="svg272"
   inkscape:version="1.2.1 (9c6d41e, 2022-07-14)"
   sodipodi:docname="logo.svg"
   xmlns:inkscape="http://www.inkscape.org/namespaces/inkscape"
   xmlns:sodipodi="http://sodipodi.sourceforge.net/DTD/sodipodi-0.dtd"
   xmlns="http://www.w3.org/2000/svg"
   xmlns:svg="http://www.w3.org/2000/svg">
  <sodipodi:namedview
     id="namedview274"
     pagecolor="#ffffff"
     bordercolor="#000000"
     borderopacity="0.25"
     inkscape:showpageshadow="2"
     inkscape:pageopacity="0.0"
     inkscape:pagecheckerboard="0"
     inkscape:deskcolor="#d1d1d1"
     inkscape:document-units="mm"
     showgrid="false"
     inkscape:zoom="0.35355339"
     inkscape:cx="1364.7161"
     inkscape:cy="1395.8288"
     inkscape:window-width="3840"
     inkscape:window-height="2107"
     inkscape:window-x="1080"
     inkscape:window-y="25"
     inkscape:window-maximized="0"
     inkscape:current-layer="layer1" />
  <defs
     id="defs269" />
  <g
     inkscape:label="Layer 1"
     inkscape:groupmode="layer"
     id="layer1"
     transform="translate(-48.494084,-64.594487)">
    <g
       id="g910">
      <path
         inkscape:connector-curvature="0"
         sodipodi:nodetypes="cccsccccsccccsccccsccc"
         class="st0"
         d="m 93.601874,193.45636 c 6.614566,2.23549 13.688506,3.42979 21.038036,3.42979 36.53333,0 66.14584,-29.61251 66.14584,-66.14583 0,-26.30522 -15.34216,-49.027533 -37.57452,-59.684363 v 0 0 l -1.22492,24.49845 c 35.73713,12.800453 7.71702,72.760413 -5.29779,72.760413 -13.0148,0 -41.096146,-59.95996 -5.29778,-72.760413 l -1.50054,-29.18378 v 0 c -4.89968,-1.16368 -10.01375,-1.77614 -15.25029,-1.77614 -36.533316,0 -66.145826,29.61251 -66.145826,66.145833 0,25.60088 14.51534,47.77199 35.79837,58.7963 l 0.55121,-17.14893 c -0.58184,-7.80888 -12.52483,-8.91131 -12.52483,-22.20172 v -6.8902 c 0,0 2.35798,-37.91135 4.65471,-47.557623 h 1.92926 v 42.321093 c 0,1.80676 2.14361,3.30729 3.95037,3.30729 1.80675,0 3.95038,-1.53116 3.95038,-3.33792 v -26.30522 c 0,-14.668453 0.97993,-15.985243 0.97993,-15.985243 h 2.05175 c 0,0 0.97994,1.31679 0.97994,15.985243 v 26.30522 c 0,1.80676 2.14361,3.33792 3.95037,3.33792 1.80676,0 3.95038,-1.50053 3.95038,-3.30729 V 95.676907 h 1.929246 c 2.32735,9.707513 4.65471,47.557633 4.65471,47.557633 v 6.89018 c 0,13.29042 -11.942996,14.42347 -12.524836,22.20172 z"
         id="path134-7"
         style="fill:#0d4f29;stroke-width:0.30623" />
      <ellipse
         class="st1"
         cx="114.67056"
         cy="130.64844"
         id="circle136-0"
         style="fill:#136535;stroke-width:0.30623"
         rx="59.837479"
         ry="59.837475" />
      <path
         inkscape:connector-curvature="0"
         sodipodi:nodetypes="ccsccc"
         class="st0"
         d="m 84.843664,172.35707 c -0.58184,-7.80888 -12.52483,-8.91131 -12.52483,-22.20172 v -6.8902 c 0,0 2.35798,-37.91135 4.65471,-47.557623 h 1.92926 l 7.99261,9.554403 v 0 c 0.24499,-8.635713 0.91869,-9.554403 0.91869,-9.554403 h 2.05175 l 8.91131,10.626203 v 0 -10.626203 h 1.929256 l 14.39283,17.148923 38.12573,-9.61565 v 0 l 27.31578,32.55233 c -2.51109,34.14471 -31.05178,61.09302 -65.90085,61.09302 -7.34953,0 -14.42347,-1.1943 -21.038036,-3.42979"
         id="path143-3"
         style="fill:#0d4f29;stroke-width:0.30623" />
      <path
         inkscape:connector-curvature="0"
         sodipodi:nodetypes="ccsccc"
         class="st2"
         d="m 143.21123,71.055957 -1.22492,24.49845 c 35.73713,12.800453 7.71702,72.760413 -5.29779,72.760413 -13.0148,0 -41.096146,-59.95996 -5.29778,-72.760413 l -1.50054,-29.18378 v 0 c 4.65471,1.10243 9.09505,2.66421 13.32103,4.68533 z"
         id="path145-9"
         style="fill:#ffffff;stroke-width:0.30623" />
      <path
         inkscape:connector-curvature="0"
         sodipodi:nodetypes="cccsccccsccccsccccsccc"
         class="st2"
         d="m 89.896484,95.676907 c 0,0 0.97993,1.31679 0.97993,15.985243 v 26.30521 c 0,1.80676 2.14362,3.33792 3.95038,3.33792 1.80676,0 3.95037,-1.50053 3.95037,-3.30729 V 95.676907 h 1.929256 c 2.32735,9.707513 4.6547,47.557633 4.6547,47.557633 v 6.89018 c 0,13.29042 -11.942986,14.42347 -12.524826,22.20172 l 0.6737,21.0993 c -3.21541,-1.07181 -6.33897,-2.3886 -9.30941,-3.95037 l 0.55122,-17.14893 c -0.58184,-7.80887 -12.52484,-8.9113 -12.52484,-22.20172 v -6.89018 c 0,0 2.35798,-37.91137 4.65471,-47.557633 h 1.92925 v 42.321083 c 0,1.80676 2.14361,3.30729 3.95038,3.30729 1.80676,0 3.95037,-1.53116 3.95037,-3.33792 v -26.30521 c 0,-14.668453 0.97994,-15.985243 0.97994,-15.985243 z"
         id="path147-9"
         style="fill:#ffffff;stroke-width:0.30623" />
    </g>
  </g>
</svg>
